<?xml version="1.0" encoding="UTF-8"?>
<svg version="1.1" xmlns="http://www.w3.org/2000/svg" width="256" height="256">
<path d="M0 0 C84.48 0 168.96 0 256 0 C256 84.48 256 168.96 256 256 C171.52 256 87.04 256 0 256 C0 171.52 0 87.04 0 0 Z " fill="#D86262" transform="translate(0,0)"/>
<path d="M0 0 C1.07260826 -0.01441132 1.07260826 -0.01441132 2.16688538 -0.02911377 C3.29361916 -0.03548859 3.29361916 -0.03548859 4.44311523 -0.04199219 C5.24345688 -0.04769226 6.04379852 -0.05339233 6.86839294 -0.05926514 C8.55677999 -0.06866599 10.24518497 -0.07522944 11.93359375 -0.07910156 C14.47031197 -0.0887478 17.00619795 -0.11979319 19.54272461 -0.15136719 C35.07556214 -0.25212607 52.34510443 0.94236183 64.18530273 12.18457031 C72.2250454 21.24494846 73.48134304 32.0331397 73.23999023 43.77050781 C72.24693661 54.96493052 65.54544115 62.33697415 57.27905273 69.45019531 C54.93920898 71.16113281 54.93920898 71.16113281 52.93920898 71.16113281 C62.15928327 91.0959613 62.15928327 91.0959613 71.50170898 110.97363281 C71.89406738 111.80660889 72.28642578 112.63958496 72.69067383 113.49780273 C73.06272949 114.28002197 73.43478516 115.06224121 73.81811523 115.86816406 C74.13337158 116.53307861 74.44862793 117.19799316 74.7734375 117.88305664 C76.38597148 121.03416755 78.18300568 124.08777703 79.93920898 127.16113281 C70.03920898 127.16113281 60.13920898 127.16113281 49.93920898 127.16113281 C48.28920898 122.87113281 46.63920898 118.58113281 44.93920898 114.16113281 C43.70622601 111.26652533 42.46242227 108.39101882 41.16967773 105.52441406 C40.50235894 104.02636767 39.83504126 102.52832078 39.16772461 101.03027344 C38.13717593 98.72784663 37.10534862 96.42599647 36.07324219 94.12426758 C35.06071165 91.86314629 34.05254288 89.60011779 33.04467773 87.33691406 C32.73225632 86.64430984 32.4198349 85.95170563 32.09794617 85.2381134 C29.93920898 80.38698896 29.93920898 80.38698896 29.93920898 78.16113281 C24.65920898 78.16113281 19.37920898 78.16113281 13.93920898 78.16113281 C13.93920898 94.33113281 13.93920898 110.50113281 13.93920898 127.16113281 C5.68920898 127.16113281 -2.56079102 127.16113281 -11.06079102 127.16113281 C-11.06079102 85.58113281 -11.06079102 44.00113281 -11.06079102 1.16113281 C-3.17900603 0.03516353 -3.17900603 0.03516353 0 0 Z " fill="#FEFCFC" transform="translate(99.060791015625,72.8388671875)"/>
<path d="M0 0 C23.35483871 0 23.35483871 0 31 4.9375 C34.77265593 8.82805143 35.31233997 11.99876958 35.375 17.375 C35.28445963 22.76517017 34.83297595 25.95983616 31 30 C26.43348504 34.10986347 22.98977637 36.26732298 16.796875 36.1953125 C15.91354492 36.19031738 15.03021484 36.18532227 14.12011719 36.18017578 C13.00797852 36.16196777 11.89583984 36.14375977 10.75 36.125 C7.2025 36.08375 3.655 36.0425 0 36 C0 24.12 0 12.24 0 0 Z " fill="#D45E5E" transform="translate(113,95)"/>
</svg>
